<?xml version="1.0" encoding="UTF-8" standalone="no"?>
<svg
   xmlns:dc="http://purl.org/dc/elements/1.1/"
   xmlns:cc="http://creativecommons.org/ns#"
   xmlns:rdf="http://www.w3.org/1999/02/22-rdf-syntax-ns#"
   xmlns:svg="http://www.w3.org/2000/svg"
   xmlns="http://www.w3.org/2000/svg"
   xmlns:sodipodi="http://sodipodi.sourceforge.net/DTD/sodipodi-0.dtd"
   xmlns:inkscape="http://www.inkscape.org/namespaces/inkscape"
   width="100mm"
   height="110mm"
   viewBox="0 0 100 110"
   version="1.1"
   id="svg8"
   inkscape:version="1.0.1 (3bc2e813f5, 2020-09-07)"
   sodipodi:docname="drawing.svg">
  <defs
     id="defs2">
    <pattern
       id="EMFhbasepattern"
       patternUnits="userSpaceOnUse"
       width="6"
       height="6"
       x="0"
       y="0" />
    <pattern
       id="EMFhbasepattern-4"
       patternUnits="userSpaceOnUse"
       width="6"
       height="6"
       x="0"
       y="0" />
  </defs>
  <sodipodi:namedview
     id="base"
     pagecolor="#ffffff"
     bordercolor="#666666"
     borderopacity="1.0"
     inkscape:pageopacity="0.0"
     inkscape:pageshadow="2"
     inkscape:zoom="0.98994949"
     inkscape:cx="110.93574"
     inkscape:cy="128.85249"
     inkscape:document-units="mm"
     inkscape:current-layer="layer1"
     inkscape:document-rotation="0"
     showgrid="false"
     showguides="true"
     inkscape:guide-bbox="true"
     fit-margin-top="0"
     fit-margin-left="0"
     fit-margin-right="0"
     fit-margin-bottom="0"
     inkscape:window-width="1267"
     inkscape:window-height="1198"
     inkscape:window-x="2884"
     inkscape:window-y="203"
     inkscape:window-maximized="0" />
  <metadata
     id="metadata5">
    <rdf:RDF>
      <cc:Work
         rdf:about="">
        <dc:format>image/svg+xml</dc:format>
        <dc:type
           rdf:resource="http://purl.org/dc/dcmitype/StillImage" />
        <dc:title />
      </cc:Work>
    </rdf:RDF>
  </metadata>
  <g
     inkscape:label="Layer 1"
     inkscape:groupmode="layer"
     id="layer1"
     transform="translate(-96.337788,-46.504653)">
    <path
       id="path50"
       style="fill:#8e3ae8;stroke-width:0.174796;fill-opacity:1"
       d="m 181.98232,46.504653 a 14.348585,14.308355 0 0 0 -11.83557,6.229339 c -3.82908,-0.0043 -7.7735,-0.0051 -13.87572,-0.0051 -30.61364,0 -29.88875,-0.0207 -33.75758,0.978069 -6.06282,1.565174 -11.02098,4.341288 -15.55653,8.709835 -6.984717,6.727595 -10.617886,15.336155 -10.570474,25.047587 0.02607,5.344771 1.079165,10.051972 3.260857,14.574857 2.262507,4.6904 4.811537,7.96348 9.369427,12.02966 1.34263,1.19777 4.58396,3.24689 6.93317,4.38301 3.31666,1.604 7.4061,2.81221 10.87779,3.21426 0.65984,0.0764 8.70449,0.14856 17.87753,0.16173 16.42635,0.0225 16.69517,0.0181 17.75291,-0.33708 1.99937,-0.67164 3.46828,-2.00134 4.39618,-3.97869 0.95881,-2.04315 0.84137,-4.87931 -0.2817,-6.81838 -0.94051,-1.62395 -2.21016,-2.6394 -4.32447,-3.45858 -0.72674,-0.28151 -2.03372,-0.30781 -16.8916,-0.34388 -17.00058,-0.0413 -17.53626,-0.0651 -20.12941,-0.87423 -5.76797,-1.79965 -10.47421,-6.206937 -12.57821,-11.781102 -0.91502,-2.42416 -1.20302,-4.064789 -1.22069,-6.946077 -0.0148,-2.416699 0.0348,-2.904988 0.46608,-4.577939 0.66777,-2.590469 1.38048,-4.202597 2.7999,-6.331488 0.91867,-1.377849 2.71213,-3.383546 3.65353,-4.085928 0.41366,-0.308644 1.18542,-0.881197 1.71494,-1.272596 1.7766,-1.313263 4.90678,-2.592113 7.70228,-3.146164 0.65863,-0.130479 9.83702,-0.223012 29.05666,-0.293677 l 12.50138,-0.04597 a 14.348585,14.308355 0 0 0 12.66615,7.58537 14.348585,14.308355 0 0 0 14.34864,-14.308411 14.348585,14.308355 0 0 0 -14.34864,-14.308409 14.348585,14.308355 0 0 0 -0.007,0 z m -27.94865,33.302866 c -2.10982,-0.0013 -4.53347,0.0022 -7.27718,0.01107 l -16.27869,0.05278 -1.35045,0.640978 c -2.62105,1.242893 -4.13624,3.44545 -4.2963,6.245511 -0.19803,3.463324 1.4555,6.084167 4.71886,7.478953 l 1.10288,0.471584 16.8916,0.09024 16.8916,0.09108 1.75079,0.48265 c 2.06439,0.569271 5.17368,2.05012 6.65147,3.1683 3.0594,2.314885 5.23438,5.129665 6.68476,8.648535 2.19434,5.32378 1.77854,11.70757 -1.09349,16.77445 -3.10646,5.48047 -8.7506,9.24886 -14.8685,9.92794 -0.98351,0.10911 -11.71312,0.1762 -28.55899,0.17706 h -12.50651 a 14.348585,14.308355 0 0 0 -11.80909,-6.18082 14.348585,14.308355 0 0 0 -14.348642,14.30841 14.348585,14.308355 0 0 0 14.348642,14.30841 14.348585,14.308355 0 0 0 12.60894,-7.47895 c 3.6098,2.9e-4 7.65423,-0.002 13.22184,-0.009 30.90514,-0.0366 29.16722,0.0206 33.52029,-1.10492 9.26561,-2.39568 17.53608,-8.97501 22.00824,-17.50819 5.20992,-9.94088 5.14226,-22.51504 -0.17414,-32.292448 -2.78975,-5.130627 -6.45519,-9.142312 -11.36009,-12.433991 -4.74426,-3.183881 -9.90697,-5.053955 -15.79041,-5.7203 -0.85223,-0.09636 -4.35795,-0.145994 -10.68743,-0.149816 z" />
  </g>
</svg>
